<svg width="153" height="76" viewBox="0 0 153 76" fill="none" xmlns="http://www.w3.org/2000/svg">
<circle cx="77.2676" cy="71" r="5" fill="#EC1C24"/>
<line x1="77.2676" y1="72" x2="77.2676" y2="31" stroke="#EC1C24" stroke-width="2"/>
<g filter="url(#filter0_d_830_5598)">
<rect x="3" width="146.535" height="51" rx="25.5" fill="white"/>
<rect x="4" y="1" width="144.535" height="49" rx="24.5" stroke="#EC1C24" stroke-width="2"/>
</g>
<path d="M50.8043 34.6448L46.1217 31.928V21.1869C46.1217 19.7986 44.6567 18.9306 43.4492 19.5645L46.1217 18.0142L50.8043 15.2975C52.0241 14.5899 53.5493 15.4748 53.5493 16.8899V33.0523C53.5493 34.4683 52.0241 35.3524 50.8043 34.6448Z" fill="url(#paint0_linear_830_5598)"/>
<path d="M33.0573 24.2681L28.3953 21.5636C27.1755 20.856 27.1755 19.0863 28.3953 18.3787L42.3249 10.2975C43.5447 9.58992 45.0699 10.4748 45.0699 11.89V17.3104L42.3975 18.8607L35.823 22.6749C34.6032 23.3825 34.6032 25.1522 35.823 25.8598L33.0566 24.2673L33.0573 24.2681Z" fill="url(#paint1_linear_830_5598)"/>
<path d="M42.3249 39.6447L28.3953 31.5635C27.1755 30.8559 27.1755 29.0862 28.3953 28.3786L33.0573 25.6741L42.3257 31.0509C42.3494 31.0647 42.3746 31.0685 42.3983 31.0808C43.6058 31.7155 45.0715 30.8467 45.0715 29.4584V38.0523C45.0715 39.4682 43.5462 40.3523 42.3265 39.6447H42.3249Z" fill="url(#paint2_linear_830_5598)"/>
<path style="mix-blend-mode:multiply" opacity="0.41" d="M35.8219 22.6751C34.6022 23.3827 34.6022 25.1524 35.8219 25.86L35.2659 25.5399C34.8084 25.2299 34.2363 24.7073 34.2363 24.0166C34.2363 23.3259 34.3333 22.6943 35.5905 21.6452C36.8484 20.5953 45.0681 14.1219 45.0681 14.1219V17.3106L42.3957 18.8609L35.8212 22.6751H35.8219Z" fill="url(#paint3_linear_830_5598)"/>
<path style="mix-blend-mode:multiply" opacity="0.41" d="M46.118 21.2159C46.118 19.8 44.5928 18.9159 43.373 19.6234L43.9268 19.2996C44.4225 19.0571 45.1595 18.8199 45.7545 19.1653C46.3724 19.5237 46.8452 19.9105 47.1216 21.5298C47.3974 23.1491 48.8669 33.5388 48.8669 33.5388L46.1188 31.9448V21.2159H46.118Z" fill="url(#paint4_linear_830_5598)"/>
<path style="mix-blend-mode:multiply" opacity="0.41" d="M42.3232 31.0384C43.5429 31.746 45.0681 30.8612 45.0681 29.446L45.0704 30.0899C45.0315 30.6424 44.8673 31.4022 44.2723 31.7468C43.6544 32.1052 43.0846 32.3239 41.551 31.7545C40.0173 31.185 30.3281 27.2688 30.3281 27.2688L33.0762 25.6748L35.7486 27.225L42.3232 31.0392V31.0384Z" fill="url(#paint5_linear_830_5598)"/>
<path d="M65.2685 20.2358V17.7581C64.9333 17.8647 64.4236 17.9497 63.8104 17.9497C62.4666 17.9497 61.3438 17.0378 61.3438 15.7409V13.4177H62.879V15.339C62.879 16.183 63.4351 16.472 64.0792 16.472C64.5101 16.472 64.9905 16.404 65.2685 16.2804V13.4193H66.8038V20.2374H65.2685V20.2358Z" fill="#213540"/>
<path d="M68.1895 13.4177H72.4107V14.9356H69.7247V16.0887H71.8362V17.5679H69.7247V18.721H72.4107V20.2374H68.1895V13.4193V13.4177Z" fill="#213540"/>
<path d="M74.7072 14.9356H73.0762V13.4177H77.8829V14.9356H76.2425V20.2358H74.7072V14.9356Z" fill="#213540"/>
<path d="M78.7594 13.4177H81.3218C82.4354 13.4177 83.3467 14.3297 83.3467 15.4441C83.3467 15.9341 83.1644 16.3175 82.8663 16.6158C83.4425 16.9234 83.8255 17.4798 83.8255 18.2094C83.8255 19.3331 82.9142 20.2358 81.762 20.2358H78.7578V13.4177H78.7594ZM81.1488 16.1737C81.5612 16.1737 81.8593 15.8754 81.8593 15.5013C81.8593 15.1273 81.5627 14.8197 81.1488 14.8197H80.2947V16.1737H81.1488ZM81.6183 18.8246C82.0307 18.8246 82.3288 18.5263 82.3288 18.1522C82.3288 17.7781 82.0307 17.4706 81.6183 17.4706H80.2947V18.8246H81.6183Z" fill="#213540"/>
<path d="M84.8652 13.4177H89.0865V14.9356H86.4005V16.0887H88.5119V17.5679H86.4005V18.721H89.0865V20.2374H84.8652V13.4193V13.4177Z" fill="#213540"/>
<path d="M90.2617 13.4179H92.5075C93.842 13.4179 94.8398 14.455 94.8398 15.7318C94.8398 17.0086 93.842 18.0457 92.5075 18.0457H91.797V20.2344H90.2617V13.4163V13.4179ZM92.4874 16.6159C92.9771 16.6159 93.3508 16.194 93.3508 15.7318C93.3508 15.2696 92.9863 14.8585 92.4874 14.8585H91.797V16.6159H92.4874Z" fill="#213540"/>
<path d="M96.8283 14.9356H95.1973V13.4177H100.004V14.9356H98.3636V20.2358H96.8283V14.9356Z" fill="#213540"/>
<path d="M100.344 16.826C100.344 14.9062 101.908 13.3404 103.827 13.3404C105.745 13.3404 107.31 14.9062 107.31 16.826C107.31 18.7458 105.745 20.3116 103.827 20.3116C101.908 20.3116 100.344 18.7458 100.344 16.826ZM105.765 16.826C105.765 15.7224 104.93 14.8181 103.827 14.8181C102.724 14.8181 101.888 15.7208 101.888 16.826C101.888 17.9312 102.724 18.8339 103.827 18.8339C104.93 18.8339 105.765 17.9312 105.765 16.826Z" fill="#213540"/>
<path d="M108.369 13.4177H112.592V14.9356H109.904V16.0887H112.016V17.5679H109.904V18.721H112.592V20.2374H108.369V13.4193V13.4177Z" fill="#213540"/>
<path d="M65.902 30.4361V26.7867L61.6035 30.5118V23.6164H63.1373V27.2659L67.4358 23.5407V30.4361H65.9005H65.902Z" fill="#213540"/>
<path d="M68.5348 24.3955C69.2639 23.7803 70.0037 23.5407 70.8084 23.5407C71.9128 23.5407 72.9677 24.0972 72.9677 25.326C72.9677 25.8933 72.8148 26.3353 72.2665 26.7666C72.8426 27.102 73.1979 27.6105 73.1979 28.3896C73.1979 29.7343 72.0935 30.5118 70.7791 30.5118C69.8956 30.5118 69.0615 30.1656 68.3711 29.2737L69.494 28.3324C69.9249 28.8796 70.3667 29.0728 70.7991 29.0728C71.4139 29.0728 71.6826 28.6987 71.6826 28.2767C71.6826 27.8548 71.3861 27.575 70.8856 27.575H69.9357V26.2781H70.7899C71.2023 26.2781 71.471 26.0092 71.471 25.6166C71.471 25.224 71.2795 24.9442 70.6354 24.9442C70.0794 24.9442 69.7627 25.1467 69.3781 25.4728L68.5333 24.397L68.5348 24.3955Z" fill="#213540"/>
<path d="M74.2285 23.5407L77.625 26.9505L81.0215 23.5407V30.4361H79.4862V27.0943L77.625 28.9569L75.7638 27.0943V30.4361H74.2285V23.5407Z" fill="#213540"/>
<path d="M82.4082 23.6163H86.631V25.1342H83.9435V26.2873H86.0549V27.7665H83.9435V28.9196H86.631V30.4359H82.4082V23.6178V23.6163Z" fill="#213540"/>
<path d="M87.8027 23.6164H90.0485C91.383 23.6164 92.3808 24.6536 92.3808 25.9303C92.3808 27.2071 91.383 28.2442 90.0485 28.2442H89.338V30.433H87.8027V23.6148V23.6164ZM90.0284 26.8145C90.5181 26.8145 90.8919 26.3925 90.8919 25.9303C90.8919 25.4681 90.5273 25.057 90.0284 25.057H89.338V26.8145H90.0284Z" fill="#213540"/>
<path d="M93.248 23.6163H97.4709V25.1342H94.7833V26.2873H96.8948V27.7665H94.7833V28.9196H97.4709V30.4359H93.248V23.6178V23.6163Z" fill="#213540"/>
<path d="M98.6445 23.6163H100.18V26.2872H102.904V23.6163H104.44V30.4344H102.904V27.7649H100.18V30.4344H98.6445V23.6163Z" fill="#213540"/>
<path d="M110.125 30.4361V26.7867L105.826 30.5118V23.6164H107.361V27.2659L111.66 23.5407V30.4361H110.125Z" fill="#213540"/>
<path d="M113.045 23.6163H117.266V25.1342H114.58V26.2873H116.692V27.7665H114.58V28.9196H117.266V30.4359H113.045V23.6178V23.6163Z" fill="#213540"/>
<path d="M61.7637 33.0113H63.0163C63.6604 33.0113 64.0604 33.4565 64.0604 33.9805C64.0604 34.3005 63.9461 34.5153 63.7314 34.6699C64.0666 34.8106 64.3014 35.0996 64.3014 35.5401C64.3014 36.16 63.8071 36.5603 63.1229 36.5603H61.7637V33.0113ZM62.9422 34.506C63.3021 34.506 63.4766 34.3005 63.4766 34.0269C63.4766 33.7672 63.3021 33.5477 62.9422 33.5477H62.3429V34.5076H62.9422V34.506ZM63.1213 36.0208C63.5214 36.0208 63.716 35.8106 63.716 35.5154C63.716 35.2202 63.5214 35.0007 63.1213 35.0007H62.3429V36.0208H63.1213Z" fill="#213540"/>
<path d="M67.0679 34.3621C67.8015 34.3621 68.302 34.8073 68.302 35.4627C68.302 36.1181 67.8031 36.5632 67.0679 36.5632H65.9141V33.0143H66.4933V34.3637H67.0679V34.3621ZM66.4933 36.0222H67.057C67.4818 36.0222 67.732 35.8275 67.732 35.4627C67.732 35.0979 67.4818 34.8985 67.057 34.8985H66.4933V36.0238V36.0222ZM68.8055 33.0127H69.3847V36.5617H68.8055V33.0127Z" fill="#213540"/>
<path d="M71.8097 33.5769V34.4271H72.5495C73.2538 34.4271 73.7589 34.8769 73.7589 35.5013C73.7589 36.1258 73.2152 36.5617 72.4847 36.5617H71.2305V33.0127H73.4438V33.5769H71.8112H71.8097ZM71.8097 36.016H72.5341C72.9388 36.016 73.189 35.8166 73.189 35.4967C73.189 35.1767 72.9388 34.9619 72.5341 34.9619H71.8097V36.016Z" fill="#213540"/>
<path d="M75.1582 34.7872C75.1582 33.7624 75.9676 32.9726 76.9715 32.9726C77.9755 32.9726 78.7848 33.7624 78.7848 34.7872C78.7848 35.812 77.9801 36.6019 76.9715 36.6019C75.9629 36.6019 75.1582 35.812 75.1582 34.7872ZM78.1948 34.7872C78.1948 34.0778 77.6697 33.5228 76.9715 33.5228C76.2734 33.5228 75.7482 34.0778 75.7482 34.7872C75.7482 35.4967 76.2734 36.0516 76.9715 36.0516C77.6697 36.0516 78.1948 35.4967 78.1948 34.7872Z" fill="#213540"/>
<path d="M80.4316 33.0113H81.4912C82.2249 33.0113 82.73 33.4766 82.73 34.1413C82.73 34.8059 82.2249 35.2712 81.4912 35.2712H81.0124V36.5603H80.4332V33.0113H80.4316ZM81.465 34.7317C81.8897 34.7317 82.1399 34.5014 82.1399 34.1413C82.1399 33.7811 81.8897 33.5508 81.465 33.5508H81.0109V34.7302H81.465V34.7317Z" fill="#213540"/>
<path d="M86.2734 34.7872C86.2734 33.7624 87.0828 32.9726 88.0868 32.9726C88.5856 32.9726 89.0166 33.1472 89.3409 33.4873L88.9656 33.8969C88.7463 33.662 88.4312 33.5213 88.0868 33.5213C87.3871 33.5213 86.8635 34.0762 86.8635 34.7857C86.8635 35.4952 87.3886 36.0501 88.0868 36.0501C88.4312 36.0501 88.7463 35.9094 88.9656 35.6745L89.3409 36.0841C89.0166 36.4241 88.5872 36.5988 88.0868 36.5988C87.0828 36.5988 86.2734 35.8089 86.2734 34.7841V34.7872Z" fill="#213540"/>
<path d="M90.9238 36.6019V33.0128H91.503V35.2772L93.9265 32.9726V36.5617H93.3472V34.2972L90.9238 36.6019Z" fill="#213540"/>
<path d="M97.1334 34.1921L96.0198 36.5617H95.4004L97.1334 32.9726L98.8664 36.5617H98.2424L97.1334 34.1921Z" fill="#213540"/>
<path d="M101.492 34.3623C102.225 34.3623 102.726 34.8074 102.726 35.4628C102.726 36.1182 102.227 36.5633 101.492 36.5633H100.338V33.0144H100.917V34.3638H101.492V34.3623ZM100.917 36.0223H101.481C101.906 36.0223 102.156 35.8276 102.156 35.4628C102.156 35.098 101.906 34.8986 101.481 34.8986H100.917V36.0239V36.0223Z" fill="#213540"/>
<path d="M104.324 33.0113H104.903V34.4813H106.661V33.0113H107.24V36.5603H106.661V35.0409H104.903V36.5603H104.324V33.0113Z" fill="#213540"/>
<path d="M110.242 34.3621C110.975 34.3621 111.476 34.8073 111.476 35.4627C111.476 36.1181 110.977 36.5632 110.242 36.5632H109.088V33.0143H109.667V34.3637H110.242V34.3621ZM109.667 36.0222H110.231C110.656 36.0222 110.906 35.8275 110.906 35.4627C110.906 35.0979 110.656 34.8985 110.231 34.8985H109.667V36.0238V36.0222ZM111.979 33.0127H112.559V36.5617H111.979V33.0127Z" fill="#213540"/>
<path d="M115.269 34.7611L114.12 33.0113H114.789L117.266 36.5603H116.602L115.663 35.18L114.724 36.5603H114.049L115.267 34.7611H115.269Z" fill="#213540"/>
<path d="M116.6 33.0109L115.73 34.3263H116.41L117.269 33.0109H116.6Z" fill="#D82128"/>
<defs>
<filter id="filter0_d_830_5598" x="0" y="0" width="152.535" height="65" filterUnits="userSpaceOnUse" color-interpolation-filters="sRGB">
<feFlood flood-opacity="0" result="BackgroundImageFix"/>
<feColorMatrix in="SourceAlpha" type="matrix" values="0 0 0 0 0 0 0 0 0 0 0 0 0 0 0 0 0 0 127 0" result="hardAlpha"/>
<feMorphology radius="17" operator="erode" in="SourceAlpha" result="effect1_dropShadow_830_5598"/>
<feOffset dy="11"/>
<feGaussianBlur stdDeviation="10"/>
<feComposite in2="hardAlpha" operator="out"/>
<feColorMatrix type="matrix" values="0 0 0 0 0.92549 0 0 0 0 0.109804 0 0 0 0 0.141176 0 0 0 1 0"/>
<feBlend mode="normal" in2="BackgroundImageFix" result="effect1_dropShadow_830_5598"/>
<feBlend mode="normal" in="SourceGraphic" in2="effect1_dropShadow_830_5598" result="shape"/>
</filter>
<linearGradient id="paint0_linear_830_5598" x1="47.4583" y1="17.299" x2="53.286" y2="34.1817" gradientUnits="userSpaceOnUse">
<stop stop-color="#213540"/>
<stop offset="1" stop-color="#6A899B"/>
</linearGradient>
<linearGradient id="paint1_linear_830_5598" x1="43.9571" y1="9.5362" x2="31.7805" y2="23.2807" gradientUnits="userSpaceOnUse">
<stop stop-color="#C1DBED"/>
<stop offset="1" stop-color="#A0BCC7"/>
</linearGradient>
<linearGradient id="paint2_linear_830_5598" x1="45.3563" y1="35.3079" x2="28.846" y2="27.9023" gradientUnits="userSpaceOnUse">
<stop stop-color="#C1272D"/>
<stop offset="1" stop-color="#ED1C24"/>
</linearGradient>
<linearGradient id="paint3_linear_830_5598" x1="39.653" y1="14.1219" x2="39.653" y2="25.86" gradientUnits="userSpaceOnUse">
<stop stop-color="white"/>
<stop offset="1"/>
</linearGradient>
<linearGradient id="paint4_linear_830_5598" x1="51.5746" y1="28.8262" x2="41.4335" y2="22.9993" gradientUnits="userSpaceOnUse">
<stop stop-color="white"/>
<stop offset="1"/>
</linearGradient>
<linearGradient id="paint5_linear_830_5598" x1="33.036" y1="31.9812" x2="43.177" y2="26.1543" gradientUnits="userSpaceOnUse">
<stop stop-color="white"/>
<stop offset="1"/>
</linearGradient>
</defs>
</svg>
