<svg width="76" height="77" viewBox="0 0 76 77" fill="none" xmlns="http://www.w3.org/2000/svg">
<g filter="url(#filter0_d_330_1214)">
<rect x="18" y="16" width="40" height="40" rx="4.72727" fill="#784E99"/>
</g>
<g clip-path="url(#clip0_330_1214)">
<path d="M46.8124 26.3392C46.2171 25.7908 43.8077 24.0424 38.4358 24.0189C38.4358 24.0189 32.103 23.6392 29.0187 26.4705C27.303 28.1861 26.6983 30.7033 26.6327 33.8205C26.5671 36.9377 26.4874 42.7783 32.1171 44.3627H32.1218L32.1171 46.7814C32.1171 46.7814 32.0796 47.7611 32.7265 47.958C33.5046 48.2017 33.964 47.4564 34.7093 46.6549C35.1171 46.2142 35.6796 45.5674 36.1062 45.0752C39.9593 45.3986 42.9171 44.658 43.2546 44.5502C44.0327 44.2971 48.4343 43.7346 49.1468 37.8939C49.8874 31.8658 48.7905 28.0596 46.8124 26.3392ZM47.464 37.4533C46.8593 42.3283 43.2921 42.6377 42.6358 42.8486C42.3546 42.9377 39.753 43.5846 36.4858 43.3736C36.4858 43.3736 34.0483 46.3127 33.289 47.0767C33.0405 47.3252 32.7687 47.3018 32.7733 46.8096C32.7733 46.4861 32.7921 42.7924 32.7921 42.7924C32.7874 42.7924 32.7874 42.7924 32.7921 42.7924C28.0202 41.4705 28.3015 36.4971 28.353 33.8955C28.4046 31.2939 28.8968 29.1611 30.3499 27.7267C32.9608 25.3596 38.3374 25.7111 38.3374 25.7111C42.8796 25.7299 45.0546 27.0986 45.5608 27.558C47.2343 28.9924 48.0874 32.4236 47.464 37.4533ZM40.9483 33.6658C40.9671 34.0689 40.3624 34.0971 40.3437 33.6939C40.2921 32.6627 39.8093 32.1611 38.8155 32.1049C38.4124 32.0814 38.4499 31.4767 38.8483 31.5002C40.1562 31.5705 40.8827 32.3205 40.9483 33.6658ZM41.8999 34.1955C41.9468 32.208 40.7046 30.6517 38.3468 30.4783C37.9483 30.4502 37.9905 29.8455 38.389 29.8736C41.1077 30.0705 42.5562 31.9408 42.5046 34.2096C42.4999 34.6127 41.8905 34.5939 41.8999 34.1955ZM44.103 34.8236C44.1077 35.2267 43.4983 35.2314 43.4983 34.8283C43.4702 31.008 40.9249 28.9267 37.8358 28.9033C37.4374 28.8986 37.4374 28.2986 37.8358 28.2986C41.2905 28.3221 44.0702 30.708 44.103 34.8236ZM43.5733 39.4221V39.4314C43.0671 40.3221 42.1202 41.3064 41.1452 40.9924L41.1358 40.9783C40.1468 40.7017 37.8171 39.5017 36.3452 38.3299C35.5858 37.7299 34.8921 37.0221 34.3577 36.3424C33.8749 35.7377 33.3874 35.0205 32.914 34.158C31.9155 32.3533 31.6952 31.5471 31.6952 31.5471C31.3812 30.5721 32.3608 29.6252 33.2562 29.1189H33.2655C33.6968 28.8939 34.1093 28.9689 34.3858 29.3017C34.3858 29.3017 34.9671 29.9955 35.2155 30.3377C35.4499 30.6564 35.764 31.1674 35.928 31.4533C36.214 31.9642 36.0358 32.4846 35.7546 32.7002L35.1921 33.1502C34.9062 33.3799 34.9437 33.8064 34.9437 33.8064C34.9437 33.8064 35.778 36.9611 38.8952 37.758C38.8952 37.758 39.3218 37.7955 39.5515 37.5096L40.0015 36.9471C40.2171 36.6658 40.7374 36.4877 41.2483 36.7736C41.9374 37.1627 42.814 37.7674 43.3952 38.3158C43.7233 38.583 43.7983 38.9908 43.5733 39.4221Z" fill="white"/>
</g>
<defs>
<filter id="filter0_d_330_1214" x="0.149818" y="0.381091" width="75.7004" height="75.7004" filterUnits="userSpaceOnUse" color-interpolation-filters="sRGB">
<feFlood flood-opacity="0" result="BackgroundImageFix"/>
<feColorMatrix in="SourceAlpha" type="matrix" values="0 0 0 0 0 0 0 0 0 0 0 0 0 0 0 0 0 0 127 0" result="hardAlpha"/>
<feOffset dy="2.23127"/>
<feGaussianBlur stdDeviation="8.92509"/>
<feComposite in2="hardAlpha" operator="out"/>
<feColorMatrix type="matrix" values="0 0 0 0 0.470588 0 0 0 0 0.305882 0 0 0 0 0.6 0 0 0 0.43 0"/>
<feBlend mode="normal" in2="BackgroundImageFix" result="effect1_dropShadow_330_1214"/>
<feBlend mode="normal" in="SourceGraphic" in2="effect1_dropShadow_330_1214" result="shape"/>
</filter>
<clipPath id="clip0_330_1214">
<rect width="24" height="24" fill="white" transform="translate(25.9999 24)"/>
</clipPath>
</defs>
</svg>
