<svg width="76" height="77" viewBox="0 0 76 77" fill="none" xmlns="http://www.w3.org/2000/svg">
<g filter="url(#filter0_d_330_1208)">
<rect x="18" y="16" width="40" height="40" rx="4.72727" fill="#43C553"/>
</g>
<g clip-path="url(#clip0_330_1208)">
<path d="M26.1003 35.8527C26.0996 37.9417 26.6496 39.981 27.6953 41.7786L25.9999 47.9207L32.3347 46.2726C34.0802 47.2168 36.0453 47.7147 38.045 47.7154H38.0502C44.6359 47.7154 49.9971 42.3975 49.9999 35.8621C50.0011 32.6949 48.7591 29.7166 46.5031 27.4761C44.2468 25.2359 41.2468 24.0013 38.0502 24C31.4633 24 26.103 29.3172 26.1003 35.8527H26.1003ZM29.8728 41.469L29.6362 41.0965C28.6419 39.5277 28.1171 37.7149 28.1178 35.8534C28.12 30.4213 32.5754 26.0019 38.0539 26.0019C40.7071 26.003 43.2004 27.0292 45.0758 28.8912C46.9511 30.7533 47.983 33.2287 47.9823 35.8614C47.9799 41.2935 43.5244 45.7135 38.0502 45.7135H38.0463C36.2638 45.7126 34.5156 45.2376 32.9911 44.34L32.6283 44.1265L28.8691 45.1045L29.8728 41.4689V41.469Z" fill="url(#paint0_linear_330_1208)"/>
<path d="M35.0635 30.8977C34.8398 30.4044 34.6044 30.3945 34.3917 30.3858C34.2175 30.3784 34.0184 30.3789 33.8195 30.3789C33.6203 30.3789 33.2968 30.4532 33.0233 30.7495C32.7496 31.0461 31.9782 31.7627 31.9782 33.2203C31.9782 34.678 33.0482 36.0866 33.1973 36.2845C33.3467 36.482 35.2629 39.5689 38.2978 40.7564C40.8201 41.7433 41.3333 41.547 41.8807 41.4975C42.4282 41.4482 43.6474 40.7811 43.8961 40.0892C44.145 39.3975 44.145 38.8046 44.0704 38.6807C43.9957 38.5572 43.7966 38.4831 43.498 38.335C43.1993 38.1868 41.7314 37.4701 41.4577 37.3712C41.184 37.2724 40.985 37.2231 40.7858 37.5198C40.5867 37.8159 40.0149 38.4831 39.8406 38.6807C39.6666 38.8787 39.4923 38.9034 39.1938 38.7552C38.895 38.6065 37.9334 38.2941 36.7926 37.2849C35.9049 36.4996 35.3057 35.5298 35.1315 35.2331C34.9573 34.937 35.1128 34.7764 35.2626 34.6288C35.3967 34.496 35.5612 34.2828 35.7107 34.1099C35.8596 33.9369 35.9092 33.8134 36.0088 33.6158C36.1085 33.4181 36.0586 33.2451 35.9841 33.0969C35.9092 32.9487 35.329 31.4836 35.0635 30.8978" fill="white"/>
</g>
<defs>
<filter id="filter0_d_330_1208" x="0.149818" y="0.381091" width="75.7004" height="75.7004" filterUnits="userSpaceOnUse" color-interpolation-filters="sRGB">
<feFlood flood-opacity="0" result="BackgroundImageFix"/>
<feColorMatrix in="SourceAlpha" type="matrix" values="0 0 0 0 0 0 0 0 0 0 0 0 0 0 0 0 0 0 127 0" result="hardAlpha"/>
<feOffset dy="2.23127"/>
<feGaussianBlur stdDeviation="8.92509"/>
<feComposite in2="hardAlpha" operator="out"/>
<feColorMatrix type="matrix" values="0 0 0 0 0.262745 0 0 0 0 0.772549 0 0 0 0 0.32549 0 0 0 0.43 0"/>
<feBlend mode="normal" in2="BackgroundImageFix" result="effect1_dropShadow_330_1208"/>
<feBlend mode="normal" in="SourceGraphic" in2="effect1_dropShadow_330_1208" result="shape"/>
</filter>
<linearGradient id="paint0_linear_330_1208" x1="37.9999" y1="47.9207" x2="37.9999" y2="24" gradientUnits="userSpaceOnUse">
<stop stop-color="#F9F9F9"/>
<stop offset="1" stop-color="white"/>
</linearGradient>
<clipPath id="clip0_330_1208">
<rect width="24" height="24" fill="white" transform="translate(25.9999 24)"/>
</clipPath>
</defs>
</svg>
