<svg width="904" height="1037" viewBox="0 0 904 1037" fill="none" xmlns="http://www.w3.org/2000/svg">
<g style="mix-blend-mode:overlay">
<mask id="path-1-inside-1_405_421" fill="white">
<path fill-rule="evenodd" clip-rule="evenodd" d="M193.404 493.625L31.7264 399.741C-10.5736 375.177 -10.5736 313.742 31.7264 289.178L514.799 8.64321C557.099 -15.9203 609.994 14.7974 609.994 63.9243V252.093L517.316 305.909L289.314 438.317C247.014 462.881 247.014 524.316 289.314 548.88L193.378 493.599L193.404 493.625ZM808.805 853.842L646.412 759.531V386.657C646.412 338.462 595.61 308.331 553.734 330.336L646.412 276.521L808.805 182.21C851.105 157.646 904 188.364 904 237.491V798.561C904 847.714 851.105 878.405 808.805 853.842ZM31.725 746.876L514.798 1027.41H514.851C557.151 1051.97 610.046 1021.28 610.046 972.13V673.798C610.046 721.993 559.217 752.151 517.341 730.118C516.962 729.922 516.573 729.788 516.183 729.653C515.726 729.496 515.267 729.338 514.824 729.079L193.403 542.429L31.725 636.313C-10.575 660.877 -10.575 722.312 31.725 746.876Z"/>
</mask>
<path d="M31.7264 399.741L31.2242 400.605L31.2242 400.605L31.7264 399.741ZM193.404 493.625L192.902 494.49L194.113 492.92L193.404 493.625ZM31.7264 289.178L32.2286 290.043L32.2286 290.043L31.7264 289.178ZM514.799 8.64321L514.297 7.77844L514.297 7.77845L514.799 8.64321ZM609.994 252.093L610.496 252.958L610.994 252.669V252.093H609.994ZM517.316 305.909L516.813 305.044L516.813 305.044L517.316 305.909ZM289.314 438.317L289.816 439.182L289.816 439.182L289.314 438.317ZM289.314 548.88L288.815 549.746L289.816 548.015L289.314 548.88ZM193.378 493.599L193.877 492.732L192.668 494.303L193.378 493.599ZM646.412 759.531H645.412V760.107L645.91 760.396L646.412 759.531ZM808.805 853.842L808.303 854.707L808.303 854.707L808.805 853.842ZM553.734 330.336L553.232 329.472L554.199 331.222L553.734 330.336ZM646.412 276.521L646.915 277.385L646.915 277.385L646.412 276.521ZM808.805 182.21L808.303 181.345L808.303 181.345L808.805 182.21ZM514.798 1027.41L514.296 1028.28L514.529 1028.41H514.798V1027.41ZM31.725 746.876L32.2272 746.011L32.2272 746.011L31.725 746.876ZM514.851 1027.41L515.353 1026.55L515.12 1026.41H514.851V1027.41ZM517.341 730.118L517.806 729.233L517.801 729.231L517.341 730.118ZM516.183 729.653L515.857 730.599L515.857 730.599L516.183 729.653ZM514.824 729.079L515.329 728.216L515.327 728.214L514.824 729.079ZM193.403 542.429L193.905 541.564L193.403 541.272L192.9 541.564L193.403 542.429ZM31.725 636.313L31.2228 635.449L31.2228 635.449L31.725 636.313ZM31.2242 400.605L192.902 494.49L193.906 492.76L32.2286 398.876L31.2242 400.605ZM31.2242 288.313C-11.7395 313.262 -11.7395 375.656 31.2242 400.605L32.2286 398.876C-9.40766 374.698 -9.40766 314.221 32.2286 290.043L31.2242 288.313ZM514.297 7.77845L31.2242 288.313L32.2286 290.043L515.302 9.50797L514.297 7.77845ZM610.994 63.9243C610.994 14.0366 557.273 -17.1772 514.297 7.77844L515.302 9.50798C556.926 -14.6633 608.994 15.5582 608.994 63.9243H610.994ZM610.994 252.093V63.9243H608.994V252.093H610.994ZM517.818 306.774L610.496 252.958L609.492 251.228L516.813 305.044L517.818 306.774ZM289.816 439.182L517.818 306.774L516.813 305.044L288.812 437.453L289.816 439.182ZM289.816 548.015C248.18 523.837 248.18 463.36 289.816 439.182L288.812 437.453C245.848 462.402 245.848 524.795 288.812 549.744L289.816 548.015ZM192.878 494.465L288.815 549.746L289.813 548.013L193.877 492.732L192.878 494.465ZM194.113 492.92L194.087 492.894L192.668 494.303L192.695 494.33L194.113 492.92ZM645.91 760.396L808.303 854.707L809.307 852.977L646.915 758.666L645.91 760.396ZM645.412 386.657V759.531H647.412V386.657H645.412ZM554.199 331.222C595.412 309.564 645.412 339.217 645.412 386.657H647.412C647.412 337.707 595.808 307.097 553.269 329.451L554.199 331.222ZM645.91 275.656L553.232 329.472L554.236 331.201L646.915 277.385L645.91 275.656ZM808.303 181.345L645.91 275.656L646.915 277.385L809.307 183.075L808.303 181.345ZM905 237.491C905 187.603 851.278 156.389 808.303 181.345L809.307 183.075C850.932 158.903 903 189.125 903 237.491H905ZM905 798.561V237.491H903V798.561H905ZM808.303 854.707C851.278 879.662 905 848.476 905 798.561H903C903 846.953 850.932 877.149 809.307 852.977L808.303 854.707ZM515.3 1026.55L32.2272 746.011L31.2228 747.74L514.296 1028.28L515.3 1026.55ZM514.851 1026.41H514.798V1028.41H514.851V1026.41ZM609.046 972.13C609.046 1020.52 556.978 1050.72 515.353 1026.55L514.349 1028.28C557.324 1053.23 611.046 1022.04 611.046 972.13H609.046ZM609.046 673.798V972.13H611.046V673.798H609.046ZM516.875 731.003C559.415 753.385 611.046 722.748 611.046 673.798H609.046C609.046 721.238 559.019 750.917 517.806 729.233L516.875 731.003ZM515.857 730.599C516.257 730.737 516.577 730.849 516.88 731.006L517.801 729.231C517.347 728.995 516.889 728.839 516.508 728.708L515.857 730.599ZM514.32 729.943C514.861 730.259 515.412 730.445 515.857 730.599L516.508 728.708C516.039 728.546 515.673 728.417 515.329 728.216L514.32 729.943ZM192.9 543.294L514.322 729.944L515.327 728.214L193.905 541.564L192.9 543.294ZM32.2272 637.178L193.905 543.294L192.9 541.564L31.2228 635.449L32.2272 637.178ZM32.2272 746.011C-9.40906 721.833 -9.40906 661.356 32.2272 637.178L31.2228 635.449C-11.7409 660.398 -11.7409 722.792 31.2228 747.741L32.2272 746.011Z" fill="white" mask="url(#path-1-inside-1_405_421)"/>
</g>
</svg>
