<svg width="24" height="24" viewBox="0 0 24 24" fill="none" xmlns="http://www.w3.org/2000/svg">
<path d="M5.91925 2C3.76397 2 2 3.76393 2 5.91925V18.0814C2 20.2367 3.76393 22 5.91925 22H18.0814C20.2367 22 22 20.2367 22 18.0814V5.91925C22 3.76397 20.2367 2 18.0814 2H5.91925ZM6.905 5.3004C7.93842 5.3004 8.57495 5.97882 8.5946 6.87059C8.5946 7.74267 7.93838 8.44015 6.88502 8.44015H6.86563C5.85188 8.44015 5.19666 7.74271 5.19666 6.87059C5.19666 5.97884 5.87171 5.3004 6.90498 5.3004H6.905ZM15.8105 9.46842C17.7979 9.46842 19.2878 10.7674 19.2878 13.5589V18.7702H16.2674V13.9083C16.2674 12.6866 15.8303 11.8531 14.7372 11.8531C13.9028 11.8531 13.4054 12.4149 13.187 12.9576C13.1073 13.1518 13.0877 13.4229 13.0877 13.6946V18.7702H10.0673C10.0673 18.7702 10.1069 10.5343 10.0673 9.68156H13.0883V10.9686C13.4897 10.3493 14.2076 9.4684 15.8105 9.4684V9.46842ZM5.37481 9.68222H8.3952V18.7702H5.37481V9.68222Z" fill="#0077B5"/>
</svg>
