<svg width="112" height="193" viewBox="0 0 112 193" fill="none" xmlns="http://www.w3.org/2000/svg">
<g clip-path="url(#clip0_1_3)">
<path d="M100.206 105.602L80.0867 93.9382V47.8225C80.0867 41.862 73.7927 38.1354 68.6045 40.857L80.0867 34.2013L100.206 22.5373C105.447 19.4993 112 23.2984 112 29.3742V98.7653C112 104.844 105.447 108.64 100.206 105.602Z" fill="url(#paint0_linear_1_3)"/>
<path d="M23.9622 61.052L3.93148 49.4407C-1.30919 46.4027 -1.30919 38.8047 3.93148 35.7667L63.7808 1.07122C69.0214 -1.9667 75.5747 1.83234 75.5747 7.90818V31.1802L64.0925 37.8359L35.8447 54.2117C30.6041 57.2496 30.6041 64.8477 35.8447 67.8856L23.9589 61.0487L23.9622 61.052Z" fill="url(#paint1_linear_1_3)"/>
<path d="M63.7806 127.069L3.93132 92.3731C-1.30934 89.3352 -1.30934 81.7371 3.93132 78.6992L23.962 67.0879L63.7839 90.1721C63.8856 90.2314 63.9939 90.2479 64.0956 90.3006C69.2838 93.0255 75.5811 89.2957 75.5811 83.3351V120.232C75.5811 126.311 69.0278 130.107 63.7872 127.069H63.7806Z" fill="url(#paint2_linear_1_3)"/>
<path style="mix-blend-mode:multiply" opacity="0.41" d="M35.8446 54.2113C30.6039 57.2493 30.6039 64.8473 35.8446 67.8853L33.4556 66.5113C31.4899 65.1801 29.032 62.9363 29.032 59.9709C29.032 57.0054 29.4488 54.2937 34.8503 49.7896C40.255 45.2821 75.5713 17.4894 75.5713 17.4894V31.1798L64.0891 37.8356L35.8413 54.2113H35.8446Z" fill="url(#paint3_linear_1_3)"/>
<path style="mix-blend-mode:multiply" opacity="0.41" d="M80.0802 47.9477C80.0802 41.8686 73.5269 38.0728 68.2862 41.1107L70.6653 39.7203C72.7951 38.6791 75.9618 37.6609 78.5181 39.1437C81.1729 40.6824 83.2042 42.343 84.3921 49.2953C85.5768 56.2476 91.8905 100.854 91.8905 100.854L80.0834 94.0107V47.9477H80.0802Z" fill="url(#paint4_linear_1_3)"/>
<path style="mix-blend-mode:multiply" opacity="0.41" d="M63.774 90.1194C69.0147 93.1573 75.568 89.3583 75.568 83.2824L75.5778 86.0469C75.4105 88.4192 74.705 91.6812 72.1486 93.1606C69.4938 94.6993 67.0458 95.6384 60.4564 93.1936C53.867 90.7487 12.237 73.9347 12.237 73.9347L24.0441 67.0912L35.5263 73.7469L63.774 90.1227V90.1194Z" fill="url(#paint5_linear_1_3)"/>
<path d="M0.0984497 178.311H5.53929C7.90202 178.311 9.83815 180.255 9.83815 182.628C9.83815 183.672 9.45093 184.489 8.82086 185.122C10.0449 185.778 10.8587 186.964 10.8587 188.516C10.8587 190.908 8.92259 192.832 6.47782 192.832H0.0984497V178.308V178.311ZM5.17176 184.183C6.04794 184.183 6.678 183.55 6.678 182.753C6.678 181.955 6.04794 181.3 5.17176 181.3H3.35705V184.183H5.17176ZM6.16936 189.827C7.04553 189.827 7.67888 189.194 7.67888 188.397C7.67888 187.6 7.04553 186.944 6.16936 186.944H3.35705V189.827H6.16936Z" fill="#213540"/>
<path d="M22.1867 192.835V185.063L13.0607 193V178.315H16.3193V186.087L25.4453 178.15V192.839H22.1867V192.835Z" fill="#213540"/>
<path d="M28.3922 178.15L35.605 185.412L42.8179 178.15V192.839H39.5593V185.718L35.6083 189.685L31.6573 185.718V192.839H28.3987V178.15H28.3922Z" fill="#213540"/>
<path d="M45.7582 178.311H49.0168V192.835H45.7582V178.311Z" fill="#213540"/>
<path d="M51.9538 178.311H56.7219C59.5539 178.311 61.6738 180.519 61.6738 183.24C61.6738 185.962 59.5539 188.17 56.7219 188.17H55.2124V192.832H51.9538V178.308V178.311ZM56.6793 185.122C57.7195 185.122 58.5137 184.222 58.5137 183.24C58.5137 182.259 57.7392 181.379 56.6793 181.379H55.2124V185.122H56.6793Z" fill="#213540"/>
<path d="M8.43034 171.109V165.83C7.71824 166.054 6.63861 166.239 5.33254 166.239C2.48086 166.239 0.0951538 164.295 0.0951538 161.534V156.585H3.35703V160.677C3.35703 162.476 4.5384 163.089 5.90353 163.089C6.81909 163.089 7.83966 162.947 8.43034 162.68V156.585H11.6889V171.109H8.43034Z" fill="#213540"/>
<path d="M14.6325 156.585H23.5945V159.817H17.8911V162.272H22.3737V165.422H17.8911V167.876H23.5945V171.109H14.6325V156.585Z" fill="#213540"/>
<path d="M28.4709 159.817H25.0089V156.585H35.2145V159.817H31.7295V171.109H28.4709V159.817Z" fill="#213540"/>
<path d="M37.0752 156.585H42.516C44.8787 156.585 46.8149 158.529 46.8149 160.901C46.8149 161.945 46.4276 162.763 45.7976 163.395C47.0216 164.051 47.8354 165.237 47.8354 166.789C47.8354 169.181 45.8993 171.105 43.4545 171.105H37.0784V156.581L37.0752 156.585ZM42.1485 162.456C43.0247 162.456 43.6547 161.823 43.6547 161.026C43.6547 160.229 43.0247 159.573 42.1485 159.573H40.3338V162.456H42.1485ZM43.1461 168.1C44.0222 168.1 44.6556 167.468 44.6556 166.67C44.6556 165.873 44.0222 165.217 43.1461 165.217H40.3338V168.1H43.1461Z" fill="#213540"/>
<path d="M50.0374 156.585H58.9994V159.817H53.296V162.272H57.7786V165.422H53.296V167.876H58.9994V171.109H50.0374V156.585Z" fill="#213540"/>
<path d="M61.4933 156.585H66.2615C69.0935 156.585 71.2134 158.792 71.2134 161.514C71.2134 164.235 69.0935 166.443 66.2615 166.443H64.7519V171.105H61.4933V156.581V156.585ZM66.2188 163.395C67.2591 163.395 68.0532 162.496 68.0532 161.514C68.0532 160.532 67.2788 159.652 66.2188 159.652H64.7519V163.395H66.2188Z" fill="#213540"/>
<path d="M75.4335 159.817H71.9714V156.585H82.1771V159.817H78.6921V171.109H75.4335V159.817Z" fill="#213540"/>
<path d="M93.1638 171.109V163.336L84.0377 171.273V156.585H87.2963V164.357L96.4224 156.42V171.109H93.1638Z" fill="#213540"/>
<path d="M108.492 171.109V163.336L99.3659 171.273V156.585H102.625V164.357L111.751 156.423V171.109H108.492Z" fill="#213540"/>
<path d="M105.883 152.647V156.585L110.415 152.647H105.883Z" fill="#EC1C24"/>
<path d="M66.4518 178.272H68.6505C69.7793 178.272 70.4816 179.056 70.4816 179.978C70.4816 180.542 70.2814 180.921 69.904 181.191C70.4914 181.438 70.9016 181.949 70.9016 182.72C70.9016 183.81 70.0353 184.516 68.8342 184.516H66.4518V178.272ZM68.5192 180.901C69.1493 180.901 69.4577 180.542 69.4577 180.058C69.4577 179.6 69.1525 179.214 68.5192 179.214H67.4691V180.904H68.5192V180.901ZM68.8342 183.567C69.5365 183.567 69.8778 183.198 69.8778 182.68C69.8778 182.163 69.5365 181.774 68.8342 181.774H67.4658V183.567H68.8342Z" fill="#213540"/>
<path d="M72.4177 184.588V178.272H73.435V182.255L77.6846 178.199V184.516H76.6673V180.532L72.4177 184.588Z" fill="#213540"/>
<path d="M80.6216 179.267V180.763H81.9178C83.1517 180.763 84.0377 181.553 84.0377 182.654C84.0377 183.754 83.0828 184.519 81.803 184.519H79.6043V178.275H83.4864V179.27H80.6216V179.267ZM80.6216 183.56H81.8916C82.6004 183.56 83.0401 183.207 83.0401 182.644C83.0401 182.081 82.6004 181.702 81.8916 181.702H80.6216V183.557V183.56Z" fill="#213540"/>
<path d="M85.5276 178.272H86.5449V184.516H85.5276V178.272Z" fill="#213540"/>
<path d="M88.4711 178.272H90.3285C91.6182 178.272 92.5009 179.089 92.5009 180.259C92.5009 181.428 91.6182 182.245 90.3285 182.245H89.4884V184.516H88.4711V178.272ZM90.2826 181.296C91.0275 181.296 91.4639 180.891 91.4639 180.259C91.4639 179.626 91.0242 179.221 90.2826 179.221H89.4851V181.296H90.2826Z" fill="#213540"/>
<path d="M66.1007 189.801C66.1007 187.998 67.5183 186.608 69.2805 186.608C70.1567 186.608 70.9115 186.914 71.4792 187.514L70.8229 188.236C70.4356 187.82 69.8843 187.577 69.2805 187.577C68.0532 187.577 67.1344 188.552 67.1344 189.801C67.1344 191.049 68.0532 192.025 69.2805 192.025C69.8843 192.025 70.4356 191.778 70.8229 191.366L71.4792 192.087C70.9115 192.687 70.1567 192.993 69.2805 192.993C67.5216 192.993 66.1007 191.603 66.1007 189.801Z" fill="#213540"/>
<path d="M72.9427 192.993V186.677H73.96V190.661L78.2097 186.605V192.921H77.1924V188.937L72.9427 192.993Z" fill="#213540"/>
<path d="M82.5151 188.753L80.5625 192.921H79.4763L82.5151 186.605L85.5538 192.921H84.4578L82.5118 188.753H82.5151Z" fill="#213540"/>
<path d="M88.8485 189.053C90.1349 189.053 91.0111 189.837 91.0111 190.987C91.0111 192.137 90.1349 192.921 88.8485 192.921H86.8238V186.677H87.8411V189.053H88.8485ZM87.8411 191.972H88.8321C89.577 191.972 90.0135 191.629 90.0135 190.987C90.0135 190.344 89.577 189.992 88.8321 189.992H87.8411V191.972Z" fill="#213540"/>
<path d="M92.4976 186.68H93.5149V189.267H96.5996V186.68H97.6169V192.924H96.5996V190.249H93.5149V192.924H92.4976V186.68Z" fill="#213540"/>
<path d="M99.5399 192.993V186.677H100.557V190.661L104.807 186.605V192.921H103.79V188.937L99.5399 192.993Z" fill="#213540"/>
<path d="M108.249 189.758L106.234 186.68H107.409L108.932 188.993L110.454 186.68H111.629L109.624 189.758L111.754 192.924H110.589L108.942 190.496L107.294 192.924H106.113L108.249 189.758Z" fill="#213540"/>
</g>
<defs>
<linearGradient id="paint0_linear_1_3" x1="85.8295" y1="31.1304" x2="110.835" y2="103.625" gradientUnits="userSpaceOnUse">
<stop stop-color="#213540"/>
<stop offset="1" stop-color="#6A899B"/>
</linearGradient>
<linearGradient id="paint1_linear_1_3" x1="70.7935" y1="-2.19735" x2="18.5198" y2="56.8512" gradientUnits="userSpaceOnUse">
<stop stop-color="#C1DBED"/>
<stop offset="1" stop-color="#A0BCC7"/>
</linearGradient>
<linearGradient id="paint2_linear_1_3" x1="76.8052" y1="108.449" x2="5.88547" y2="76.6151" gradientUnits="userSpaceOnUse">
<stop stop-color="#C1272D"/>
<stop offset="1" stop-color="#ED1C24"/>
</linearGradient>
<linearGradient id="paint3_linear_1_3" x1="52.3049" y1="17.4894" x2="52.3049" y2="67.8853" gradientUnits="userSpaceOnUse">
<stop stop-color="white"/>
<stop offset="1"/>
</linearGradient>
<linearGradient id="paint4_linear_1_3" x1="103.524" y1="80.6215" x2="59.9691" y2="55.5768" gradientUnits="userSpaceOnUse">
<stop stop-color="white"/>
<stop offset="1"/>
</linearGradient>
<linearGradient id="paint5_linear_1_3" x1="23.8713" y1="94.1671" x2="67.4265" y2="69.1223" gradientUnits="userSpaceOnUse">
<stop stop-color="white"/>
<stop offset="1"/>
</linearGradient>
<clipPath id="clip0_1_3">
<rect width="112" height="193" fill="white"/>
</clipPath>
</defs>
</svg>
