<svg width="139" height="46" viewBox="0 0 139 46" fill="none" xmlns="http://www.w3.org/2000/svg">
<path d="M35.9012 37.8623L28.6929 33.6803V17.1459C28.6929 15.0088 26.4379 13.6726 24.5791 14.6485L28.6929 12.2621L35.9012 8.08004C37.7788 6.99082 40.1267 8.35294 40.1267 10.5314V35.411C40.1267 37.5906 37.7788 38.9516 35.9012 37.8623Z" fill="url(#paint0_linear_1021_3711)"/>
<path d="M8.58487 21.8889L1.40833 17.7258C-0.469281 16.6365 -0.469281 13.9123 1.40833 12.8231L22.851 0.383267C24.7286 -0.705955 27.0765 0.656163 27.0765 2.83461V11.1786L22.9627 13.565L12.8421 19.4364C10.9645 20.5256 10.9645 23.2498 12.8421 24.3391L8.5837 21.8877L8.58487 21.8889Z" fill="url(#paint1_linear_1021_3711)"/>
<path d="M22.8508 45.5589L1.40821 33.119C-0.469403 32.0298 -0.469403 29.3056 1.40821 28.2164L8.58475 24.0532L22.852 32.3299C22.8885 32.3512 22.9273 32.3571 22.9637 32.376C24.8225 33.353 27.0787 32.0156 27.0787 29.8786V43.1075C27.0787 45.2871 24.7308 46.6481 22.8532 45.5589H22.8508Z" fill="url(#paint2_linear_1021_3711)"/>
<path style="mix-blend-mode:multiply" opacity="0.41" d="M12.8421 19.4369C10.9645 20.5261 10.9645 23.2503 12.8421 24.3395L11.9862 23.8469C11.282 23.3696 10.4014 22.5651 10.4014 21.5019C10.4014 20.4387 10.5507 19.4664 12.4859 17.8515C14.4223 16.2354 27.0753 6.27051 27.0753 6.27051V11.1791L22.9615 13.5655L12.841 19.4369H12.8421Z" fill="url(#paint3_linear_1021_3711)"/>
<path style="mix-blend-mode:multiply" opacity="0.41" d="M28.6906 17.1907C28.6906 15.0111 26.3427 13.6501 24.4651 14.7393L25.3175 14.2408C26.0805 13.8675 27.2151 13.5024 28.131 14.0341C29.0821 14.5858 29.8099 15.1812 30.2355 17.6739C30.6599 20.1665 32.922 36.1599 32.922 36.1599L28.6918 33.7062V17.1907H28.6906Z" fill="url(#paint4_linear_1021_3711)"/>
<path style="mix-blend-mode:multiply" opacity="0.41" d="M22.8483 32.3108C24.726 33.4 27.0738 32.0379 27.0738 29.8594L27.0774 30.8506C27.0174 31.7012 26.7646 32.8708 25.8488 33.4012C24.8976 33.9529 24.0205 34.2896 21.6597 33.413C19.2989 32.5364 4.38379 26.5079 4.38379 26.5079L8.614 24.0542L12.7278 26.4406L22.8483 32.312V32.3108Z" fill="url(#paint5_linear_1021_3711)"/>
<path d="M58.1682 15.682V11.8678C57.6523 12.032 56.8677 12.1629 55.9238 12.1629C53.8552 12.1629 52.1267 10.759 52.1267 8.76274V5.18652H54.4901V8.1441C54.4901 9.44324 55.346 9.88818 56.3375 9.88818C57.0008 9.88818 57.7403 9.78349 58.1682 9.59314V5.18891H60.5316V15.6844H58.1682V15.682Z" fill="#213540"/>
<path d="M62.6643 5.18652H69.1624V7.52307H65.0277V9.2981H68.2779V11.5752H65.0277V13.3502H69.1624V15.6844H62.6643V5.18891V5.18652Z" fill="#213540"/>
<path d="M72.6979 7.52307H70.1871V5.18652H77.5863V7.52307H75.0613V15.682H72.6979V7.52307Z" fill="#213540"/>
<path d="M78.9366 5.18652H82.8811C84.5953 5.18652 85.9981 6.59036 85.9981 8.3059C85.9981 9.06016 85.7176 9.65025 85.2587 10.1095C86.1455 10.583 86.7352 11.4395 86.7352 12.5626C86.7352 14.2924 85.3324 15.682 83.5587 15.682H78.9342V5.18652H78.9366ZM82.6148 9.42896C83.2496 9.42896 83.7085 8.96974 83.7085 8.39393C83.7085 7.81812 83.252 7.34462 82.6148 7.34462H81.2999V9.42896H82.6148ZM83.3376 13.5096C83.9724 13.5096 84.4313 13.0504 84.4313 12.4746C84.4313 11.8988 83.9724 11.4253 83.3376 11.4253H81.2999V13.5096H83.3376Z" fill="#213540"/>
<path d="M88.3356 5.18652H94.8336V7.52307H90.6989V9.2981H93.9491V11.5752H90.6989V13.3502H94.8336V15.6844H88.3356V5.18891V5.18652Z" fill="#213540"/>
<path d="M96.6405 5.18695H100.098C102.152 5.18695 103.688 6.78352 103.688 8.74889C103.688 10.7143 102.152 12.3108 100.098 12.3108H99.0039V15.68H96.6405V5.18457V5.18695ZM100.067 10.1099C100.82 10.1099 101.396 9.46032 101.396 8.74889C101.396 8.03745 100.835 7.40453 100.067 7.40453H99.0039V10.1099H100.067Z" fill="#213540"/>
<path d="M106.75 7.52307H104.24V5.18652H111.639V7.52307H109.114V15.682H106.75V7.52307Z" fill="#213540"/>
<path d="M112.159 10.4329C112.159 7.4777 114.568 5.06738 117.521 5.06738C120.474 5.06738 122.882 7.4777 122.882 10.4329C122.882 13.3881 120.474 15.7984 117.521 15.7984C114.568 15.7984 112.159 13.3881 112.159 10.4329ZM120.505 10.4329C120.505 8.73402 119.218 7.34208 117.521 7.34208C115.823 7.34208 114.537 8.73164 114.537 10.4329C114.537 12.1342 115.823 13.5237 117.521 13.5237C119.218 13.5237 120.505 12.1342 120.505 10.4329Z" fill="#213540"/>
<path d="M124.516 5.18652H131.016V7.52307H126.879V9.2981H130.129V11.5752H126.879V13.3502H131.016V15.6844H124.516V5.18891V5.18652Z" fill="#213540"/>
<path d="M59.143 31.384V25.7662L52.5261 31.5005V20.8861H54.8871V26.5038L61.504 20.7695V31.384H59.1407H59.143Z" fill="#213540"/>
<path d="M63.197 22.0853C64.3192 21.1383 65.4581 20.7695 66.6968 20.7695C68.3968 20.7695 70.0208 21.6261 70.0208 23.5177C70.0208 24.391 69.7854 25.0715 68.9413 25.7353C69.8282 26.2516 70.375 27.0344 70.375 28.2337C70.375 30.3037 68.675 31.5005 66.6517 31.5005C65.2917 31.5005 64.0077 30.9676 62.9449 29.5947L64.6735 28.1456C65.3368 28.9879 66.0168 29.2853 66.6826 29.2853C67.6289 29.2853 68.0426 28.7095 68.0426 28.06C68.0426 27.4104 67.5861 26.9797 66.8157 26.9797H65.3535V24.9834H66.6683C67.3031 24.9834 67.7168 24.5694 67.7168 23.965C67.7168 23.3607 67.422 22.93 66.4305 22.93C65.5746 22.93 65.0872 23.2417 64.4952 23.7438L63.1946 22.0877L63.197 22.0853Z" fill="#213540"/>
<path d="M71.9608 20.7695L77.1892 26.0184L82.4176 20.7695V31.3839H80.0542V26.2397L77.1892 29.1069L74.3242 26.2397V31.3839H71.9608V20.7695Z" fill="#213540"/>
<path d="M84.5527 20.8857H91.0532V23.2223H86.9161V24.9973H90.1663V27.2744H86.9161V29.0494H91.0532V31.3836H84.5527V20.8881V20.8857Z" fill="#213540"/>
<path d="M92.8577 20.8857H96.3147C98.369 20.8857 99.9049 22.4822 99.9049 24.4476C99.9049 26.413 98.369 28.0096 96.3147 28.0096H95.221V31.3787H92.8577V20.8833V20.8857ZM96.2838 25.8086C97.0375 25.8086 97.6129 25.159 97.6129 24.4476C97.6129 23.7362 97.0518 23.1033 96.2838 23.1033H95.221V25.8086H96.2838Z" fill="#213540"/>
<path d="M101.239 20.8857H107.739V23.2223H103.602V24.9973H106.852V27.2744H103.602V29.0494H107.739V31.3836H101.239V20.8881V20.8857Z" fill="#213540"/>
<path d="M109.544 20.8857H111.907V24.9973H116.101V20.8857H118.465V31.3812H116.101V27.272H111.907V31.3812H109.544V20.8857Z" fill="#213540"/>
<path d="M127.217 31.384V25.7662L120.6 31.5005V20.8861H122.963V26.5038L129.58 20.7695V31.384H127.217Z" fill="#213540"/>
<path d="M131.713 20.8857H138.211V23.2223H134.076V24.9973H137.326V27.2744H134.076V29.0494H138.211V31.3836H131.713V20.8881V20.8857Z" fill="#213540"/>
<path d="M52.7711 35.3481H54.6994C55.6908 35.3481 56.3066 36.0334 56.3066 36.84C56.3066 37.3326 56.1307 37.6633 55.8002 37.9012C56.3162 38.1178 56.6776 38.5627 56.6776 39.2408C56.6776 40.195 55.9167 40.8112 54.8634 40.8112H52.7711V35.3481ZM54.5852 37.649C55.1392 37.649 55.4079 37.3325 55.4079 36.9114C55.4079 36.5117 55.1392 36.1738 54.5852 36.1738H53.6627V37.6514H54.5852V37.649ZM54.861 39.9808C55.4769 39.9808 55.7764 39.6572 55.7764 39.2027C55.7764 38.7483 55.4769 38.4104 54.861 38.4104H53.6627V39.9808H54.861Z" fill="#213540"/>
<path d="M60.9359 37.4273C62.0652 37.4273 62.8356 38.1126 62.8356 39.1214C62.8356 40.1303 62.0676 40.8155 60.9359 40.8155H59.1598V35.3525H60.0514V37.4297H60.9359V37.4273ZM60.0514 39.9828H60.9192C61.5731 39.9828 61.9583 39.683 61.9583 39.1214C61.9583 38.5599 61.5731 38.2529 60.9192 38.2529H60.0514V39.9851V39.9828ZM63.6107 35.3501H64.5023V40.8132H63.6107V35.3501Z" fill="#213540"/>
<path d="M68.2374 36.2186V37.5272H69.3763C70.4605 37.5272 71.238 38.2196 71.238 39.1809C71.238 40.1422 70.4011 40.8132 69.2765 40.8132H67.3458V35.3501H70.753V36.2186H68.2398H68.2374ZM68.2374 39.9732H69.3525C69.9755 39.9732 70.3607 39.6663 70.3607 39.1738C70.3607 38.6812 69.9755 38.3505 69.3525 38.3505H68.2374V39.9732Z" fill="#213540"/>
<path d="M73.3898 38.0815C73.3898 36.504 74.6356 35.2881 76.1811 35.2881C77.7266 35.2881 78.9724 36.504 78.9724 38.0815C78.9724 39.659 77.7337 40.8749 76.1811 40.8749C74.6285 40.8749 73.3898 39.659 73.3898 38.0815ZM78.0642 38.0815C78.0642 36.9894 77.2558 36.1351 76.1811 36.1351C75.1064 36.1351 74.298 36.9894 74.298 38.0815C74.298 39.1736 75.1064 40.0278 76.1811 40.0278C77.2558 40.0278 78.0642 39.1736 78.0642 38.0815Z" fill="#213540"/>
<path d="M81.5071 35.3481H83.1381C84.2675 35.3481 85.045 36.0643 85.045 37.0875C85.045 38.1106 84.2675 38.8268 83.1381 38.8268H82.4011V40.8112H81.5095V35.3481H81.5071ZM83.0977 37.9964C83.7516 37.9964 84.1367 37.6419 84.1367 37.0875C84.1367 36.5331 83.7516 36.1786 83.0977 36.1786H82.3987V37.994H83.0977V37.9964Z" fill="#213540"/>
<path d="M90.5016 38.0815C90.5016 36.504 91.7475 35.2881 93.2929 35.2881C94.0609 35.2881 94.7242 35.557 95.2235 36.0804L94.6458 36.711C94.3082 36.3493 93.8231 36.1328 93.2929 36.1328C92.2159 36.1328 91.4098 36.987 91.4098 38.0791C91.4098 39.1712 92.2182 40.0254 93.2929 40.0254C93.8231 40.0254 94.3082 39.8089 94.6458 39.4473L95.2235 40.0778C94.7242 40.6012 94.0633 40.8701 93.2929 40.8701C91.7475 40.8701 90.5016 39.6543 90.5016 38.0767V38.0815Z" fill="#213540"/>
<path d="M97.6583 40.8749V35.35H98.5499V38.8357L102.28 35.2881V40.813H101.389V37.3272L97.6583 40.8749Z" fill="#213540"/>
<path d="M107.216 37.1654L105.502 40.813H104.549L107.216 35.2881L109.884 40.813H108.923L107.216 37.1654Z" fill="#213540"/>
<path d="M113.926 37.4274C115.055 37.4274 115.826 38.1126 115.826 39.1215C115.826 40.1303 115.058 40.8156 113.926 40.8156H112.15V35.3525H113.041V37.4297H113.926V37.4274ZM113.041 39.9828H113.909C114.563 39.9828 114.948 39.683 114.948 39.1215C114.948 38.5599 114.563 38.253 113.909 38.253H113.041V39.9852V39.9828Z" fill="#213540"/>
<path d="M118.286 35.3481H119.178V37.6109H121.884V35.3481H122.775V40.8112H121.884V38.4723H119.178V40.8112H118.286V35.3481Z" fill="#213540"/>
<path d="M127.395 37.4273C128.524 37.4273 129.295 38.1126 129.295 39.1214C129.295 40.1303 128.527 40.8155 127.395 40.8155H125.619V35.3525H126.511V37.4297H127.395V37.4273ZM126.511 39.9828H127.378C128.032 39.9828 128.417 39.683 128.417 39.1214C128.417 38.5599 128.032 38.2529 127.378 38.2529H126.511V39.9851V39.9828ZM130.07 35.3501H130.962V40.8132H130.07V35.3501Z" fill="#213540"/>
<path d="M135.137 38.0416L133.368 35.3481H134.397L138.211 40.8112H137.189L135.743 38.6864L134.297 40.8112H133.258L135.134 38.0416H135.137Z" fill="#213540"/>
<path d="M137.184 35.3472L135.845 37.372H136.891L138.213 35.3472H137.184Z" fill="#D82128"/>
<defs>
<linearGradient id="paint0_linear_1021_3711" x1="30.7504" y1="11.1611" x2="39.7213" y2="37.1495" gradientUnits="userSpaceOnUse">
<stop stop-color="#213540"/>
<stop offset="1" stop-color="#6A899B"/>
</linearGradient>
<linearGradient id="paint1_linear_1021_3711" x1="25.3635" y1="-0.788651" x2="6.61944" y2="20.369" gradientUnits="userSpaceOnUse">
<stop stop-color="#C1DBED"/>
<stop offset="1" stop-color="#A0BCC7"/>
</linearGradient>
<linearGradient id="paint2_linear_1021_3711" x1="27.5172" y1="38.8829" x2="2.10203" y2="27.4832" gradientUnits="userSpaceOnUse">
<stop stop-color="#C1272D"/>
<stop offset="1" stop-color="#ED1C24"/>
</linearGradient>
<linearGradient id="paint3_linear_1021_3711" x1="18.7395" y1="6.27051" x2="18.7395" y2="24.3395" gradientUnits="userSpaceOnUse">
<stop stop-color="white"/>
<stop offset="1"/>
</linearGradient>
<linearGradient id="paint4_linear_1021_3711" x1="37.0901" y1="28.9056" x2="21.4795" y2="19.936" gradientUnits="userSpaceOnUse">
<stop stop-color="white"/>
<stop offset="1"/>
</linearGradient>
<linearGradient id="paint5_linear_1021_3711" x1="8.55209" y1="33.7621" x2="24.1627" y2="24.7924" gradientUnits="userSpaceOnUse">
<stop stop-color="white"/>
<stop offset="1"/>
</linearGradient>
</defs>
</svg>
