<svg width="24" height="24" viewBox="0 0 24 24" fill="none" xmlns="http://www.w3.org/2000/svg">
<path d="M22.0564 7.19662C21.9375 6.77272 21.706 6.38893 21.3865 6.08607C21.058 5.77389 20.6553 5.55058 20.2165 5.43722C18.5743 5.00437 11.9949 5.00437 11.9949 5.00437C9.25201 4.97316 6.5098 5.11042 3.78375 5.41536C3.34494 5.5371 2.94302 5.76539 2.61373 6.07995C2.29019 6.39125 2.05583 6.77514 1.93341 7.19575C1.63932 8.78004 1.49644 10.3887 1.50667 12C1.49618 13.6099 1.63872 15.218 1.93341 16.8043C2.05321 17.2231 2.28669 17.6053 2.61111 17.9139C2.93553 18.2226 3.33953 18.4456 3.78375 18.5637C5.44784 18.9956 11.9949 18.9956 11.9949 18.9956C14.7413 19.0269 17.4869 18.8896 20.2165 18.5846C20.6553 18.4713 21.058 18.248 21.3865 17.9358C21.7059 17.633 21.9371 17.2492 22.0555 16.8252C22.3572 15.2416 22.504 13.6323 22.4936 12.0201C22.5163 10.4012 22.3697 8.78425 22.0564 7.19575V7.19662ZM9.90319 14.9941V9.00675L15.3773 12.0009L9.90319 14.9941Z" fill="#ED1C24"/>
</svg>
